HIERARCHY
ROOT Hips
{
	OFFSET 0.00000 0.00000 0.00000
	CHANNELS 6 Xposition Yposition Zposition Yrotation Zrotation Xrotation 
	JOINT Lumbar
	{
		OFFSET 0 0 0
		CHANNELS 3 Zrotation Xrotation Yrotation
		JOINT Neck
		{
			OFFSET 0.00 0.2701 0.00
			CHANNELS 3 Zrotation Xrotation Yrotation
			End Site
			{
				OFFSET 0.00 0.1379 0.00
			}
		}
		JOINT RightShoulder
		{
			OFFSET 0.0119 0.2289 0.1181
			CHANNELS 3 Zrotation Xrotation Yrotation
			JOINT RightElbow
			{
				OFFSET 0.00 -0.1475 0.00
				CHANNELS 2 Zrotation Yrotation
				JOINT RightWrist
				{
					OFFSET 0.00 -0.1605 0.00
					CHANNELS 2 Zrotation Xrotation
					End Site
					{
						OFFSET 0.0040 -0.1068 0.0006
					}
				}
			}
		}
		JOINT LeftShoulder
		{
			OFFSET 0.0119 0.2289 -0.1181
			CHANNELS 3 Zrotation Xrotation Yrotation
			JOINT LeftElbow
			{
				OFFSET 0.00 -0.1475 0.00
				CHANNELS 2 Zrotation Yrotation
				JOINT LeftWrist
				{
					OFFSET 0.00 -0.1605 0.00
					CHANNELS 2 Zrotation Xrotation
					End Site
					{
						OFFSET 0.0040 -0.1068 -0.0006
					}
				}
			}
		}
	}
	JOINT RightHip
	{
		OFFSET 0.0316 -0.0424 0.0458
		CHANNELS 3 Zrotation Xrotation Yrotation
		JOINT RightKnee
		{
			OFFSET 0.00 -0.2438 0.00
			CHANNELS 1 Zrotation
			JOINT RightAnkle
			{
				OFFSET 0.00 -0.2449 0.00
				CHANNELS 3 Zrotation Xrotation Yrotation
				End Site
				{
					OFFSET 0.1237 -0.0542 0.0051
				}
			}
		}
	}
	JOINT LeftHip
	{
		OFFSET 0.0316 -0.0424 -0.0458
		CHANNELS 3 Zrotation Xrotation Yrotation
		JOINT LeftKnee
		{
			OFFSET 0.00 -0.2438 0.00
			CHANNELS 1 Zrotation
			JOINT LeftAnkle
			{
				OFFSET 0.00 -0.2449 0.00
				CHANNELS 3 Zrotation Xrotation Yrotation
				End Site
				{
					OFFSET 0.1237 -0.0542 -0.0051
				}
			}
		}
	}
}
MOTION
Frames: 25
Frame Time: 0.02
-3e-05 -4e-05 -6e-05 -177.48383 -41.45868 -1.41161 48.70413 2.76037 -4.75105 4.72631 -0.85278 -0.93304 -18.62267 -9.31668 5.70184 33.77605 54.98051 -3.63873 -5.01629 -24.08859 11.35653 -9.88459 49.74249 -101.23054 12.28573 -2.00441 44.69399 -0.14281 -7.38481 -19.42137 -6.13384 -2.72205 -3.51926 48.37028 4.34749 4.45653 -24.58828 -6.31714 1.69433 3.03526
-0.0001 -5e-05 -1e-05 -177.48936 -41.45817 -1.41665 48.70636 2.75671 -4.74305 4.72306 -0.85565 -0.93309 -18.59766 -8.90349 4.40285 33.78403 62.14792 -1.85329 -3.74894 -24.09584 11.35205 -9.86644 49.73616 -101.22702 12.28444 -2.00412 44.68358 -0.18592 -7.63094 -19.42016 -6.12854 -2.69664 -3.50666 48.3612 4.39298 4.67443 -24.58843 -6.31836 1.68607 3.03151
-0.00017 -5e-05 5e-05 -177.49492 -41.45766 -1.42167 48.7086 2.75307 -4.73503 4.71979 -0.8585 -0.93314 -18.57275 -8.49158 3.10793 33.79196 69.29323 -0.07336 -2.48549 -24.10322 11.34646 -9.846 49.72988 -101.23201 12.28608 -2.00519 44.67317 -0.22895 -7.87664 -19.41895 -6.12326 -2.67128 -3.49407 48.3521 4.43836 4.89181 -24.58856 -6.31959 1.67781 3.02776
-0.00024 -5e-05 0.00011 -177.50044 -41.45716 -1.42669 48.71083 2.74942 -4.72705 4.71654 -0.86136 -0.93319 -18.54782 -8.07966 1.81295 33.79991 76.43857 1.70659 -1.22204 -24.11048 11.34173 -9.82736 49.72358 -101.23051 12.28548 -2.00521 44.66279 -0.27194 -8.12207 -19.41774 -6.11798 -2.64594 -3.4815 48.34304 4.48372 5.10907 -24.58871 -6.32081 1.66957 3.02402
-0.0003 -6e-05 0.00016 -177.50591 -41.45666 -1.43171 48.71302 2.74577 -4.71909 4.71333 -0.86424 -0.93324 -18.52276 -7.66645 0.51387 33.8079 83.60597 3.49202 0.04531 -24.11753 11.33875 -9.81236 49.71723 -101.21558 12.28028 -2.00309 44.65243 -0.31498 -8.36779 -19.41654 -6.11269 -2.62059 -3.46892 48.334 4.52916 5.32677 -24.58885 -6.32203 1.66135 3.02028
-0.00037 -6e-05 0.00022 -177.51164 -41.45613 -1.43674 48.71538 2.74214 -4.71095 4.70994 -0.86703 -0.9333 -18.49819 -7.25729 -0.77222 33.81573 90.70443 5.26028 1.30046 -24.1256 11.32781 -9.78075 49.71108 -101.2614 12.29591 -2.01071 44.64192 -0.35799 -8.6134 -19.41531 -6.10741 -2.5952 -3.45632 48.3248 4.5744 5.54346 -24.58898 -6.32326 1.65302 3.01649
-0.00044 -6e-05 0.00027 -177.51685 -41.45566 -1.44175 48.71741 2.73846 -4.70318 4.7069 -0.87 -0.93334 -18.47267 -6.84046 -2.08297 33.82387 97.93349 7.06109 2.57873 -24.13167 11.33231 -9.78135 49.70455 -101.18966 12.27124 -1.99947 44.63171 -0.40102 -8.85905 -19.41413 -6.10211 -2.5699 -3.44377 48.31592 4.62002 5.76196 -24.58913 -6.32448 1.64491 3.01282
-0.00051 -7e-05 0.00033 -177.52253 -41.45514 -1.44678 48.71973 2.73483 -4.69509 4.70355 -0.87281 -0.93339 -18.44801 -6.43067 -3.37109 33.83173 105.04262 8.83201 3.83577 -24.13946 11.32366 -9.75452 49.69836 -101.2177 12.28077 -2.00423 44.62124 -0.44401 -9.10448 -19.41291 -6.09684 -2.54454 -3.43119 48.30676 4.66527 5.97876 -24.58927 -6.32571 1.6366 3.00904
-0.00058 -7e-05 0.00038 -177.52887 -41.45454 -1.45183 48.72247 2.73124 -4.68653 4.69975 -0.8754 -0.93347 -18.42446 -6.02943 -4.63164 33.83921 112.00614 10.56664 5.06704 -24.14985 11.29439 -9.68469 49.69261 -101.40352 12.3444 -2.03431 44.61037 -0.48709 -9.35051 -19.41161 -6.09156 -2.51902 -3.4185 48.29717 4.71014 6.19374 -24.58938 -6.32695 1.62804 3.00512
-0.00064 -7e-05 0.00044 -177.53165 -41.45434 -1.45676 48.72299 2.72738 -4.68043 4.69836 -0.87919 -0.93343 -18.3947 -5.57883 -6.05112 33.84878 119.81064 12.51086 6.44716 -24.1468 11.37006 -9.83377 49.68442 -100.78936 12.13376 -1.93607 44.60157 -0.53007 -9.59572 -19.41069 -6.08622 -2.49415 -3.40623 48.28982 4.7574 6.41998 -24.58961 -6.3281 1.62088 3.00198
-0.00072 -8e-05 0.00049 -177.54176 -41.45332 -1.46195 48.72807 2.72411 -4.66928 4.69199 -0.88047 -0.93363 -18.37791 -5.23249 -7.13502 33.85397 125.83826 14.01224 7.51277 -24.17114 11.2332 -9.53945 49.68131 -101.79316 12.47781 -2.09734 44.58855 -0.57297 -9.84092 -19.40901 -6.08105 -2.46806 -3.39319 48.27789 4.7995 6.62193 -24.58961 -6.32944 1.61082 2.99723
-0.00082 -8e-05 0.00053 -177.57374 -41.4499 -1.46796 48.74675 2.72239 -4.64288 4.67086 -0.87456 -0.93452 -18.3981 -5.17443 -7.28991 33.84678 126.95496 14.28973 7.70917 -24.27949 10.43265 -7.86064 49.69286 -107.86999 14.56116 -3.07225 44.5625 -0.61809 -10.10068 -19.40504 -6.07617 -2.4373 -3.37721 48.25208 4.82829 6.76099 -24.58894 -6.33132 1.59231 2.98769
-0.00093 -8e-05 0.00057 -177.61276 -41.4457 -1.47423 48.7698 2.72127 -4.61165 4.64491 -0.86618 -0.93564 -18.43105 -5.22099 -7.10832 33.8352 126.28731 14.12252 7.58975 -24.41381 9.43252 -5.76544 49.70939 -115.4631 17.16431 -4.29036 44.53247 -0.66271 -10.35784 -19.40035 -6.07149 -2.40555 -3.36062 48.22192 4.85173 6.8749 -24.58806 -6.33338 1.57101 2.97662
-0.00103 -8e-05 0.00062 -177.6474 -41.44198 -1.48032 48.79012 2.7199 -4.58352 4.62187 -0.85915 -0.93664 -18.45723 -5.21781 -7.08738 33.82589 126.46763 14.16662 7.62039 -24.53039 8.57761 -3.97313 49.72318 -121.93755 19.38388 -5.32905 44.50521 -0.70594 -10.60649 -19.39613 -6.06684 -2.37509 -3.34488 48.19463 4.87708 6.99794 -24.58732 -6.33533 1.55134 2.96651
-0.00115 -8e-05 0.00066 -177.68699 -41.43772 -1.48665 48.81358 2.71845 -4.55158 4.59579 -0.85117 -0.93773 -18.48748 -5.2227 -7.0374 33.81558 126.51528 14.17774 7.62761 -24.67175 7.49654 -1.70925 49.739 -130.19195 22.21399 -6.65324 44.47391 -0.7559 -10.89552 -19.39132 -6.06169 -2.34107 -3.32677 48.16356 4.90468 7.13089 -24.58638 -6.3374 1.53013 2.95527
-0.00124 -8e-05 0.0007 -177.71801 -41.43441 -1.49256 48.83155 2.71732 -4.5264 4.57488 -0.84456 -0.93867 -18.51232 -5.23735 -6.96278 33.8061 126.38197 14.1436 7.60273 -24.76808 6.83373 -0.31749 49.75177 -135.14435 23.91143 -7.44778 44.45005 -0.79183 -11.1005 -19.38755 -6.05763 -2.31424 -3.31341 48.13933 4.92624 7.23691 -24.58582 -6.33925 1.51148 2.94603
-0.00125 -8e-05 0.00075 -177.72312 -41.43397 -1.49721 48.83309 2.71688 -4.52137 4.56961 -0.84255 -0.93914 -18.51813 -5.23678 -6.95382 33.80087 126.50244 14.1719 7.62227 -24.72975 7.42323 -1.53635 49.7547 -130.20292 22.21511 -6.65528 44.44809 -0.78813 -11.06832 -19.3869 -6.05653 -2.30746 -3.31349 48.13524 4.93317 7.27798 -24.5864 -6.34053 1.50035 2.94264
-0.00124 -8e-05 0.0008 -177.71947 -41.43449 -1.50143 48.82897 2.71677 -4.52321 4.56967 -0.84189 -0.93946 -18.51783 -5.24476 -6.92514 33.79577 126.45549 14.15829 7.61224 -24.6459 8.43179 -3.6291 49.75441 -121.95944 19.38621 -5.3331 44.45366 -0.7705 -10.95273 -19.38731 -6.05653 -2.30796 -3.31834 48.13814 4.93412 7.29244 -24.58737 -6.34158 1.49193 2.94131
-0.00124 -9e-05 0.00086 -177.72018 -41.43457 -1.50585 48.82758 2.71651 -4.52175 4.56715 -0.84059 -0.93985 -18.52145 -5.26058 -6.86822 33.79092 126.26318 14.10887 7.57659 -24.58557 9.21648 -5.25539 49.75572 -115.49493 17.16738 -4.29634 44.45557 -0.75989 -10.87909 -19.38719 -6.05603 -2.30516 -3.32089 48.13778 4.93727 7.31664 -24.58815 -6.3427 1.48244 2.93908
-0.00123 -9e-05 0.00091 -177.71955 -41.43474 -1.51024 48.82575 2.7162 -4.52105 4.56512 -0.83964 -0.94022 -18.52232 -5.23351 -6.9446 33.78749 126.89552 14.26394 7.68606 -24.5144 10.13443 -7.1579 49.75664 -107.91541 14.56614 -3.08059 44.45843 -0.74635 -10.78826 -19.38724 -6.05553 -2.3023 -3.32398 48.13777 4.94222 7.34894 -24.58899 -6.34396 1.47222 2.9367
-0.00123 -0.0001 0.00096 -177.71955 -41.43484 -1.51463 48.82334 2.71614 -4.52023 4.56342 -0.8379 -0.94061 -18.52524 -5.29275 -6.75809 33.77758 125.85384 14.00345 7.50134 -24.4544 10.87805 -8.7004 49.75753 -101.84545 12.4831 -2.10713 44.46105 -0.73562 -10.7135 -19.38721 -6.05528 -2.30128 -3.32709 48.13858 4.94232 7.3596 -24.58979 -6.34489 1.46414 2.9351
-0.00122 -0.0001 0.00104 -177.72354 -41.43549 -1.51878 48.82146 2.71622 -4.519 4.5614 -0.83701 -0.94098 -18.5519 -5.62084 -5.72376 33.77934 119.70391 12.47697 6.41588 -24.43838 11.02925 -9.01713 49.75924 -100.8224 12.12839 -1.94475 44.46195 -0.73595 -10.70306 -19.38662 -6.05554 -2.30364 -3.32912 48.14113 4.92825 7.30617 -24.59043 -6.34494 1.46181 2.93536
-0.00121 -9e-05 0.00112 -177.72859 -41.43581 -1.52302 48.81895 2.71671 -4.5168 4.55962 -0.83442 -0.94139 -18.57699 -6.02982 -4.4514 33.76806 111.96915 10.55568 5.05288 -24.43466 10.99328 -8.94707 49.7611 -101.41234 12.32829 -2.04098 44.46221 -0.7396 -10.71171 -19.38595 -6.056 -2.30757 -3.331 48.144 4.90988 7.23376 -24.59102 -6.34467 1.46151 2.9363
-0.00121 -9e-05 0.0012 -177.73285 -41.43568 -1.52738 48.81632 2.71721 -4.51446 4.5576 -0.8307 -0.94182 -18.59273 -6.37867 -3.37222 33.74461 105.33121 8.90735 3.88369 -24.42388 11.04939 -9.06758 49.76265 -101.20907 12.2578 -2.00939 44.46226 -0.74179 -10.71201 -19.38535 -6.05634 -2.31075 -3.33294 48.146 4.89503 7.17759 -24.59161 -6.34458 1.45993 2.93675
-0.0012 -9e-05 0.00127 -177.73741 -41.43828 -1.53093 48.81554 2.71656 -4.51623 4.55598 -0.83604 -0.94207 -18.65357 -6.82273 -1.93122 33.80165 97.15079 6.8802 2.43544 -24.41775 11.08976 -9.15486 49.76462 -101.14298 12.22383 -2.00277 44.46471 -0.74329 -10.70825 -19.38457 -6.05686 -2.31437 -3.33511 48.1515 4.8736 7.0894 -24.59227 -6.34438 1.4598 2.93798
